<svg width="260" height="60" viewBox="0 0 260 60" fill="none" xmlns="http://www.w3.org/2000/svg">
<g clip-path="url(#clip0_32_32)">
<path d="M26.853 59.2497C23.073 59.2497 19.576 58.6354 16.362 57.4067C13.196 56.1308 10.432 54.3587 8.06897 52.0904C5.75297 49.7748 3.93396 47.0812 2.61096 44.0096C1.28796 40.938 0.625977 37.5591 0.625977 33.8732C0.625977 30.1872 1.28796 26.8084 2.61096 23.7367C3.93396 20.6651 5.77698 17.9951 8.13998 15.7268C10.503 13.4113 13.267 11.6392 16.433 10.4105C19.647 9.13461 23.144 8.49672 26.924 8.49672C30.752 8.49672 34.272 9.15821 37.486 10.4814C40.747 11.7573 43.511 13.6712 45.779 16.223L41.172 20.6887C39.282 18.704 37.155 17.239 34.792 16.2939C32.429 15.3015 29.901 14.8053 27.208 14.8053C24.42 14.8053 21.82 15.2779 19.41 16.223C17.048 17.1681 14.992 18.4913 13.244 20.1925C11.495 21.8938 10.125 23.9258 9.13196 26.2886C8.18696 28.6041 7.71497 31.1323 7.71497 33.8732C7.71497 36.614 8.18696 39.1659 9.13196 41.5287C10.125 43.8442 11.495 45.8526 13.244 47.5538C14.992 49.255 17.048 50.5782 19.41 51.5233C21.82 52.4684 24.42 52.941 27.208 52.941C29.901 52.941 32.429 52.4684 34.792 51.5233C37.155 50.5309 39.282 49.0187 41.172 46.9867L45.779 51.4524C43.511 54.0043 40.747 55.9418 37.486 57.2649C34.272 58.5881 30.728 59.2497 26.853 59.2497ZM54.19 58.6826V21.114H60.995V58.6826H54.19ZM57.593 13.8838C56.269 13.8838 55.159 13.4585 54.261 12.6079C53.41 11.7573 52.985 10.7177 52.985 9.48902C52.985 8.21312 53.41 7.14992 54.261 6.29922C55.159 5.44862 56.269 5.02332 57.593 5.02332C58.916 5.02332 60.003 5.44862 60.853 6.29922C61.751 7.10262 62.2 8.11861 62.2 9.34731C62.2 10.6232 61.775 11.7101 60.924 12.6079C60.074 13.4585 58.963 13.8838 57.593 13.8838ZM90.008 59.1079C85.991 59.1079 82.447 58.2809 79.375 56.627C76.351 54.973 73.988 52.7047 72.287 49.8221C70.633 46.9395 69.806 43.6316 69.806 39.8983C69.806 36.1651 70.609 32.8572 72.216 29.9745C73.87 27.0919 76.114 24.8473 78.95 23.2406C81.832 21.5866 85.069 20.7596 88.661 20.7596C92.3 20.7596 95.513 21.563 98.301 23.1697C101.089 24.7764 103.263 27.0447 104.822 29.9745C106.429 32.8572 107.233 36.236 107.233 40.111C107.233 40.3945 107.209 40.7253 107.162 41.1034C107.162 41.4814 107.138 41.8358 107.091 42.1666H75.122V37.2756H103.547L100.782 38.9768C100.829 36.5668 100.333 34.4166 99.294 32.5264C98.254 30.6361 96.813 29.1712 94.97 28.1316C93.174 27.0447 91.071 26.5012 88.661 26.5012C86.298 26.5012 84.195 27.0447 82.352 28.1316C80.509 29.1712 79.068 30.6598 78.028 32.5973C76.989 34.4875 76.469 36.6613 76.469 39.1186V40.2527C76.469 42.7573 77.036 45.002 78.17 46.9867C79.351 48.9242 80.982 50.4364 83.061 51.5233C85.14 52.6102 87.527 53.1537 90.22 53.1537C92.441 53.1537 94.45 52.7756 96.245 52.0195C98.088 51.2634 99.695 50.1293 101.066 48.6171L104.822 53.0119C103.121 54.9966 100.995 56.5088 98.443 57.5485C95.938 58.5881 93.127 59.1079 90.008 59.1079ZM115.973 58.6826V6.08661H122.778V58.6826H115.973ZM151.152 59.1079C147.372 59.1079 144.017 58.2809 141.087 56.627C138.157 54.973 135.841 52.7047 134.14 49.8221C132.439 46.8922 131.588 43.5843 131.588 39.8983C131.588 36.1651 132.439 32.8572 134.14 29.9745C135.841 27.0919 138.157 24.8473 141.087 23.2406C144.017 21.5866 147.372 20.7596 151.152 20.7596C154.886 20.7596 158.217 21.5866 161.147 23.2406C164.124 24.8473 166.44 27.0919 168.094 29.9745C169.795 32.8099 170.646 36.1178 170.646 39.8983C170.646 43.6316 169.795 46.9395 168.094 49.8221C166.44 52.7047 164.124 54.973 161.147 56.627C158.217 58.2809 154.886 59.1079 151.152 59.1079ZM151.152 53.1537C153.563 53.1537 155.713 52.6102 157.603 51.5233C159.54 50.4364 161.053 48.9006 162.139 46.9159C163.226 44.8838 163.77 42.5447 163.77 39.8983C163.77 37.2047 163.226 34.8892 162.139 32.9517C161.053 30.9669 159.54 29.4311 157.603 28.3442C155.713 27.2573 153.563 26.7139 151.152 26.7139C148.742 26.7139 146.592 27.2573 144.702 28.3442C142.812 29.4311 141.3 30.9669 140.165 32.9517C139.031 34.8892 138.464 37.2047 138.464 39.8983C138.464 42.5447 139.031 44.8838 140.165 46.9159C141.3 48.9006 142.812 50.4364 144.702 51.5233C146.592 52.6102 148.742 53.1537 151.152 53.1537Z" fill="#E0E566"/>
<path d="M238.613 0.428802H196.082C184.338 0.428802 174.817 9.94956 174.817 21.694V21.6941C174.817 33.4385 184.338 42.9593 196.082 42.9593H238.613C250.357 42.9593 259.878 33.4385 259.878 21.6941V21.694C259.878 9.94956 250.357 0.428802 238.613 0.428802Z" fill="#017CEB"/>
<path d="M196.135 33.6358C194.365 33.6358 192.78 33.2451 191.378 32.4638C189.999 31.6824 188.907 30.5908 188.103 29.189C187.299 27.7872 186.896 26.1556 186.896 24.2941C186.896 22.4327 187.299 20.8126 188.103 19.4337C188.907 18.0319 189.999 16.9403 191.378 16.159C192.78 15.3776 194.365 14.9869 196.135 14.9869C197.674 14.9869 199.065 15.3317 200.306 16.0211C201.547 16.7105 202.535 17.7446 203.27 19.1235C204.029 20.5023 204.408 22.2259 204.408 24.2941C204.408 26.3624 204.04 28.0859 203.305 29.4648C202.592 30.8436 201.616 31.8892 200.375 32.6016C199.134 33.2911 197.72 33.6358 196.135 33.6358ZM196.41 30.7402C197.559 30.7402 198.594 30.4759 199.513 29.9474C200.455 29.4188 201.19 28.6719 201.719 27.7068C202.271 26.7186 202.546 25.581 202.546 24.2941C202.546 22.9842 202.271 21.8582 201.719 20.916C201.19 19.9508 200.455 19.2039 199.513 18.6753C198.594 18.1468 197.559 17.8825 196.41 17.8825C195.238 17.8825 194.193 18.1468 193.274 18.6753C192.354 19.2039 191.619 19.9508 191.067 20.916C190.516 21.8582 190.24 22.9842 190.24 24.2941C190.24 25.581 190.516 26.7186 191.067 27.7068C191.619 28.6719 192.354 29.4188 193.274 29.9474C194.193 30.4759 195.238 30.7402 196.41 30.7402ZM202.65 33.429V28.4996L202.857 24.2597L202.512 20.0197V7.85141H205.821V33.429H202.65ZM220.218 33.6358C218.264 33.6358 216.541 33.2336 215.047 32.4293C213.576 31.625 212.427 30.5219 211.6 29.1201C210.795 27.7183 210.393 26.1096 210.393 24.2941C210.393 22.4787 210.784 20.87 211.565 19.4682C212.37 18.0664 213.461 16.9748 214.84 16.1934C216.242 15.3891 217.816 14.9869 219.563 14.9869C221.332 14.9869 222.895 15.3776 224.251 16.159C225.607 16.9403 226.664 18.0434 227.422 19.4682C228.203 20.87 228.594 22.5131 228.594 24.3975C228.594 24.5354 228.583 24.6963 228.56 24.8801C228.56 25.064 228.548 25.2363 228.525 25.3972H212.979V23.0187H226.802L225.457 23.846C225.48 22.674 225.239 21.6284 224.733 20.7091C224.228 19.7899 223.527 19.0775 222.631 18.5719C221.757 18.0434 220.735 17.7791 219.563 17.7791C218.414 17.7791 217.391 18.0434 216.495 18.5719C215.598 19.0775 214.898 19.8014 214.392 20.7436C213.886 21.6628 213.634 22.7199 213.634 23.9149V24.4665C213.634 25.6845 213.909 26.776 214.461 27.7412C215.035 28.6834 215.828 29.4188 216.839 29.9474C217.851 30.4759 219.011 30.7402 220.321 30.7402C221.401 30.7402 222.378 30.5564 223.251 30.1887C224.147 29.821 224.929 29.2694 225.595 28.5341L227.422 30.6713C226.595 31.6365 225.561 32.3718 224.32 32.8774C223.102 33.383 221.734 33.6358 220.218 33.6358ZM237.644 33.429L229.647 15.1593H233.094L240.195 31.7054H238.54L245.779 15.1593H249.019L241.022 33.429H237.644Z" fill="white"/>
</g>
<defs>
<clipPath id="clip0_32_32">
<rect width="260" height="60" fill="white"/>
</clipPath>
</defs>
</svg>

